<mxfile host="Electron" modified="2024-09-26T23:29:10.741Z" agent="Mozilla/5.0 (Macintosh; Intel Mac OS X 10_15_7) AppleWebKit/537.36 (KHTML, like Gecko) draw.io/23.0.2 Chrome/120.0.6099.109 Electron/28.1.0 Safari/537.36" etag="csyqXdMH03tR9GZ4nHqw" version="23.0.2" type="device">
  <diagram name="Page-1" id="yJYxH_n-O4rtXefAGjrb">
    <mxGraphModel dx="954" dy="633" grid="1" gridSize="10" guides="1" tooltips="1" connect="1" arrows="1" fold="1" page="1" pageScale="1" pageWidth="1400" pageHeight="700" math="0" shadow="0">
      <root>
        <mxCell id="0" />
        <mxCell id="1" parent="0" />
        <mxCell id="mNo6MlBfuPs6k5OFrZoI-1" value="" style="rounded=1;whiteSpace=wrap;html=1;fillColor=none;strokeWidth=2;dashed=1;" parent="1" vertex="1">
          <mxGeometry x="300" y="160" width="320" height="340" as="geometry" />
        </mxCell>
        <mxCell id="mNo6MlBfuPs6k5OFrZoI-3" value="" style="sketch=0;outlineConnect=0;fillColor=#f0a30a;strokeColor=#BD7000;dashed=0;verticalLabelPosition=bottom;verticalAlign=top;align=center;html=1;fontSize=14;fontStyle=0;aspect=fixed;pointerEvents=1;shape=mxgraph.aws4.waf_bot;fontColor=#000000;" parent="1" vertex="1">
          <mxGeometry x="396.98999999999995" y="206" width="50" height="50" as="geometry" />
        </mxCell>
        <mxCell id="mNo6MlBfuPs6k5OFrZoI-4" value="" style="group" parent="1" vertex="1" connectable="0">
          <mxGeometry x="316.99999999999994" y="206" width="40" height="50" as="geometry" />
        </mxCell>
        <mxCell id="mNo6MlBfuPs6k5OFrZoI-5" value="" style="shape=note;whiteSpace=wrap;html=1;backgroundOutline=1;darkOpacity=0.05;size=11;strokeWidth=2;fillColor=#fff2cc;strokeColor=#d6b656;fontSize=14;" parent="mNo6MlBfuPs6k5OFrZoI-4" vertex="1">
          <mxGeometry width="40" height="50" as="geometry" />
        </mxCell>
        <mxCell id="mNo6MlBfuPs6k5OFrZoI-6" value="" style="group;fontSize=14;" parent="mNo6MlBfuPs6k5OFrZoI-4" vertex="1" connectable="0">
          <mxGeometry x="10" y="17" width="20" height="28" as="geometry" />
        </mxCell>
        <mxCell id="mNo6MlBfuPs6k5OFrZoI-7" value="" style="line;strokeWidth=2;html=1;container=0;opacity=50;fontSize=14;" parent="mNo6MlBfuPs6k5OFrZoI-6" vertex="1">
          <mxGeometry width="15" height="10" as="geometry" />
        </mxCell>
        <mxCell id="mNo6MlBfuPs6k5OFrZoI-8" value="" style="line;strokeWidth=2;html=1;container=0;opacity=50;fontSize=14;" parent="mNo6MlBfuPs6k5OFrZoI-6" vertex="1">
          <mxGeometry y="10" width="20" height="8" as="geometry" />
        </mxCell>
        <mxCell id="mNo6MlBfuPs6k5OFrZoI-9" style="edgeStyle=orthogonalEdgeStyle;rounded=0;orthogonalLoop=1;jettySize=auto;html=1;" parent="1" source="mNo6MlBfuPs6k5OFrZoI-5" target="mNo6MlBfuPs6k5OFrZoI-3" edge="1">
          <mxGeometry relative="1" as="geometry" />
        </mxCell>
        <mxCell id="mNo6MlBfuPs6k5OFrZoI-10" value="" style="group" parent="1" vertex="1" connectable="0">
          <mxGeometry x="316.99999999999994" y="264" width="40" height="50" as="geometry" />
        </mxCell>
        <mxCell id="mNo6MlBfuPs6k5OFrZoI-11" value="" style="shape=note;whiteSpace=wrap;html=1;backgroundOutline=1;darkOpacity=0.05;size=11;strokeWidth=2;fillColor=#d5e8d4;strokeColor=#82b366;fontSize=14;" parent="mNo6MlBfuPs6k5OFrZoI-10" vertex="1">
          <mxGeometry width="40" height="50" as="geometry" />
        </mxCell>
        <mxCell id="mNo6MlBfuPs6k5OFrZoI-12" value="" style="group;fontSize=14;" parent="mNo6MlBfuPs6k5OFrZoI-10" vertex="1" connectable="0">
          <mxGeometry x="10" y="17" width="20" height="28" as="geometry" />
        </mxCell>
        <mxCell id="mNo6MlBfuPs6k5OFrZoI-13" value="" style="line;strokeWidth=2;html=1;container=0;opacity=50;fontSize=14;" parent="mNo6MlBfuPs6k5OFrZoI-12" vertex="1">
          <mxGeometry width="15" height="10" as="geometry" />
        </mxCell>
        <mxCell id="mNo6MlBfuPs6k5OFrZoI-14" value="" style="line;strokeWidth=2;html=1;container=0;opacity=50;fontSize=14;" parent="mNo6MlBfuPs6k5OFrZoI-12" vertex="1">
          <mxGeometry y="10" width="20" height="8" as="geometry" />
        </mxCell>
        <mxCell id="mNo6MlBfuPs6k5OFrZoI-16" value="" style="sketch=0;outlineConnect=0;fillColor=#d5e8d4;strokeColor=#82b366;dashed=0;verticalLabelPosition=bottom;verticalAlign=top;align=center;html=1;fontSize=14;fontStyle=0;aspect=fixed;pointerEvents=1;shape=mxgraph.aws4.waf_bot;gradientColor=#97d077;" parent="1" vertex="1">
          <mxGeometry x="396.41999999999996" y="269" width="50" height="50" as="geometry" />
        </mxCell>
        <mxCell id="mNo6MlBfuPs6k5OFrZoI-17" style="edgeStyle=orthogonalEdgeStyle;rounded=0;orthogonalLoop=1;jettySize=auto;html=1;exitX=0;exitY=0;exitDx=40;exitDy=30.5;exitPerimeter=0;" parent="1" source="mNo6MlBfuPs6k5OFrZoI-11" target="mNo6MlBfuPs6k5OFrZoI-16" edge="1">
          <mxGeometry relative="1" as="geometry" />
        </mxCell>
        <mxCell id="mNo6MlBfuPs6k5OFrZoI-18" value="" style="group" parent="1" vertex="1" connectable="0">
          <mxGeometry x="316.99999999999994" y="370" width="40" height="50" as="geometry" />
        </mxCell>
        <mxCell id="mNo6MlBfuPs6k5OFrZoI-19" value="" style="shape=note;whiteSpace=wrap;html=1;backgroundOutline=1;darkOpacity=0.05;size=11;strokeWidth=2;fillColor=#f8cecc;strokeColor=#b85450;fontSize=14;" parent="mNo6MlBfuPs6k5OFrZoI-18" vertex="1">
          <mxGeometry width="40" height="50" as="geometry" />
        </mxCell>
        <mxCell id="mNo6MlBfuPs6k5OFrZoI-20" value="" style="group;fontSize=14;" parent="mNo6MlBfuPs6k5OFrZoI-18" vertex="1" connectable="0">
          <mxGeometry x="10" y="17" width="20" height="28" as="geometry" />
        </mxCell>
        <mxCell id="mNo6MlBfuPs6k5OFrZoI-21" value="" style="line;strokeWidth=2;html=1;container=0;opacity=50;fontSize=14;" parent="mNo6MlBfuPs6k5OFrZoI-20" vertex="1">
          <mxGeometry width="15" height="10" as="geometry" />
        </mxCell>
        <mxCell id="mNo6MlBfuPs6k5OFrZoI-22" value="" style="line;strokeWidth=2;html=1;container=0;opacity=50;fontSize=14;" parent="mNo6MlBfuPs6k5OFrZoI-20" vertex="1">
          <mxGeometry y="10" width="20" height="8" as="geometry" />
        </mxCell>
        <mxCell id="mNo6MlBfuPs6k5OFrZoI-24" value="" style="sketch=0;outlineConnect=0;fillColor=#f8cecc;strokeColor=#b85450;dashed=0;verticalLabelPosition=bottom;verticalAlign=top;align=center;html=1;fontSize=14;fontStyle=0;aspect=fixed;pointerEvents=1;shape=mxgraph.aws4.waf_bot;gradientColor=#ea6b66;" parent="1" vertex="1">
          <mxGeometry x="396.41999999999996" y="375" width="50" height="50" as="geometry" />
        </mxCell>
        <mxCell id="mNo6MlBfuPs6k5OFrZoI-25" style="edgeStyle=orthogonalEdgeStyle;rounded=0;orthogonalLoop=1;jettySize=auto;html=1;exitX=0;exitY=0;exitDx=40;exitDy=30.5;exitPerimeter=0;" parent="1" source="mNo6MlBfuPs6k5OFrZoI-19" target="mNo6MlBfuPs6k5OFrZoI-24" edge="1">
          <mxGeometry relative="1" as="geometry" />
        </mxCell>
        <mxCell id="mNo6MlBfuPs6k5OFrZoI-26" value="" style="group" parent="1" vertex="1" connectable="0">
          <mxGeometry x="316.99999999999994" y="430" width="40" height="50" as="geometry" />
        </mxCell>
        <mxCell id="mNo6MlBfuPs6k5OFrZoI-27" value="" style="shape=note;whiteSpace=wrap;html=1;backgroundOutline=1;darkOpacity=0.05;size=11;strokeWidth=2;fillColor=#dae8fc;strokeColor=#6c8ebf;fontSize=14;" parent="mNo6MlBfuPs6k5OFrZoI-26" vertex="1">
          <mxGeometry width="40" height="50" as="geometry" />
        </mxCell>
        <mxCell id="mNo6MlBfuPs6k5OFrZoI-28" value="" style="group;fontSize=14;" parent="mNo6MlBfuPs6k5OFrZoI-26" vertex="1" connectable="0">
          <mxGeometry x="10" y="17" width="20" height="28" as="geometry" />
        </mxCell>
        <mxCell id="mNo6MlBfuPs6k5OFrZoI-29" value="" style="line;strokeWidth=2;html=1;container=0;opacity=50;fontSize=14;" parent="mNo6MlBfuPs6k5OFrZoI-28" vertex="1">
          <mxGeometry width="15" height="10" as="geometry" />
        </mxCell>
        <mxCell id="mNo6MlBfuPs6k5OFrZoI-30" value="" style="line;strokeWidth=2;html=1;container=0;opacity=50;fontSize=14;" parent="mNo6MlBfuPs6k5OFrZoI-28" vertex="1">
          <mxGeometry y="10" width="20" height="8" as="geometry" />
        </mxCell>
        <mxCell id="mNo6MlBfuPs6k5OFrZoI-32" value="" style="sketch=0;outlineConnect=0;fillColor=#dae8fc;strokeColor=#6c8ebf;dashed=0;verticalLabelPosition=bottom;verticalAlign=top;align=center;html=1;fontSize=14;fontStyle=0;aspect=fixed;pointerEvents=1;shape=mxgraph.aws4.waf_bot;gradientColor=#7ea6e0;" parent="1" vertex="1">
          <mxGeometry x="396.41999999999996" y="435" width="50" height="50" as="geometry" />
        </mxCell>
        <mxCell id="mNo6MlBfuPs6k5OFrZoI-33" style="edgeStyle=orthogonalEdgeStyle;rounded=0;orthogonalLoop=1;jettySize=auto;html=1;exitX=0;exitY=0;exitDx=40;exitDy=30.5;exitPerimeter=0;" parent="1" source="mNo6MlBfuPs6k5OFrZoI-27" target="mNo6MlBfuPs6k5OFrZoI-32" edge="1">
          <mxGeometry relative="1" as="geometry" />
        </mxCell>
        <mxCell id="mNo6MlBfuPs6k5OFrZoI-34" value="" style="endArrow=none;dashed=1;html=1;dashPattern=1 3;strokeWidth=2;rounded=0;fontSize=14;" parent="1" edge="1">
          <mxGeometry width="50" height="50" relative="1" as="geometry">
            <mxPoint x="379.9999999999999" y="273" as="sourcePoint" />
            <mxPoint x="379.9999999999999" y="253" as="targetPoint" />
          </mxGeometry>
        </mxCell>
        <mxCell id="mNo6MlBfuPs6k5OFrZoI-35" value="" style="endArrow=none;dashed=1;html=1;dashPattern=1 3;strokeWidth=2;rounded=0;fontSize=14;" parent="1" edge="1">
          <mxGeometry width="50" height="50" relative="1" as="geometry">
            <mxPoint x="379.9999999999999" y="435" as="sourcePoint" />
            <mxPoint x="379.9999999999999" y="415" as="targetPoint" />
          </mxGeometry>
        </mxCell>
        <mxCell id="mNo6MlBfuPs6k5OFrZoI-36" value="Market prediction" style="text;html=1;strokeColor=none;fillColor=default;align=center;verticalAlign=middle;whiteSpace=wrap;rounded=0;fontSize=15;fontStyle=1" parent="1" vertex="1">
          <mxGeometry x="394.4100000000001" y="148" width="131.18" height="20" as="geometry" />
        </mxCell>
        <mxCell id="mNo6MlBfuPs6k5OFrZoI-37" value="Cross-section prediction" style="text;html=1;strokeColor=none;fillColor=default;align=center;verticalAlign=middle;whiteSpace=wrap;rounded=0;fontSize=14;fontStyle=1" parent="1" vertex="1">
          <mxGeometry x="373.74" y="491" width="172.51" height="20" as="geometry" />
        </mxCell>
        <mxCell id="mNo6MlBfuPs6k5OFrZoI-38" value="Next Week&#39;s Market Return will be:&amp;nbsp;&lt;u&gt;&amp;nbsp; &amp;nbsp; &amp;nbsp; &amp;nbsp; &amp;nbsp;&lt;/u&gt;" style="text;html=1;strokeColor=default;fillColor=none;align=center;verticalAlign=middle;whiteSpace=wrap;rounded=1;fontSize=14;strokeWidth=1;" parent="1" vertex="1">
          <mxGeometry x="350" y="166" width="139" height="38" as="geometry" />
        </mxCell>
        <mxCell id="mNo6MlBfuPs6k5OFrZoI-39" value="" style="endArrow=none;dashed=1;html=1;strokeWidth=2;rounded=0;dashPattern=12 12;entryX=1;entryY=0.5;entryDx=0;entryDy=0;exitX=0;exitY=0.5;exitDx=0;exitDy=0;" parent="1" source="mNo6MlBfuPs6k5OFrZoI-1" target="mNo6MlBfuPs6k5OFrZoI-1" edge="1">
          <mxGeometry width="50" height="50" relative="1" as="geometry">
            <mxPoint x="410" y="330" as="sourcePoint" />
            <mxPoint x="730" y="330" as="targetPoint" />
          </mxGeometry>
        </mxCell>
        <mxCell id="mNo6MlBfuPs6k5OFrZoI-44" value="Next Week&#39;s Bitcoin Return will be:&amp;nbsp;&lt;u&gt;&amp;nbsp; &amp;nbsp; &amp;nbsp; &amp;nbsp; &amp;nbsp;&lt;/u&gt;" style="text;html=1;strokeColor=default;fillColor=none;align=center;verticalAlign=middle;whiteSpace=wrap;rounded=1;fontSize=14;strokeWidth=1;" parent="1" vertex="1">
          <mxGeometry x="350" y="332" width="139" height="38" as="geometry" />
        </mxCell>
        <mxCell id="mNo6MlBfuPs6k5OFrZoI-55" style="edgeStyle=orthogonalEdgeStyle;rounded=1;orthogonalLoop=1;jettySize=auto;html=1;curved=0;" parent="1" source="mNo6MlBfuPs6k5OFrZoI-45" target="mNo6MlBfuPs6k5OFrZoI-3" edge="1">
          <mxGeometry relative="1" as="geometry">
            <Array as="points">
              <mxPoint x="586" y="220" />
            </Array>
          </mxGeometry>
        </mxCell>
        <mxCell id="mNo6MlBfuPs6k5OFrZoI-56" style="edgeStyle=orthogonalEdgeStyle;rounded=1;orthogonalLoop=1;jettySize=auto;html=1;curved=0;" parent="1" source="mNo6MlBfuPs6k5OFrZoI-45" target="mNo6MlBfuPs6k5OFrZoI-16" edge="1">
          <mxGeometry relative="1" as="geometry">
            <Array as="points">
              <mxPoint x="586" y="294" />
            </Array>
          </mxGeometry>
        </mxCell>
        <mxCell id="mNo6MlBfuPs6k5OFrZoI-57" style="edgeStyle=orthogonalEdgeStyle;rounded=1;orthogonalLoop=1;jettySize=auto;html=1;curved=0;" parent="1" source="mNo6MlBfuPs6k5OFrZoI-45" target="mNo6MlBfuPs6k5OFrZoI-24" edge="1">
          <mxGeometry relative="1" as="geometry">
            <Array as="points">
              <mxPoint x="586" y="390" />
            </Array>
          </mxGeometry>
        </mxCell>
        <mxCell id="mNo6MlBfuPs6k5OFrZoI-70" style="edgeStyle=orthogonalEdgeStyle;rounded=1;orthogonalLoop=1;jettySize=auto;html=1;curved=0;" parent="1" source="mNo6MlBfuPs6k5OFrZoI-45" target="mNo6MlBfuPs6k5OFrZoI-32" edge="1">
          <mxGeometry relative="1" as="geometry">
            <Array as="points">
              <mxPoint x="586" y="460" />
            </Array>
          </mxGeometry>
        </mxCell>
        <mxCell id="mNo6MlBfuPs6k5OFrZoI-45" value="&lt;font style=&quot;font-size: 10px;&quot;&gt;&lt;b&gt;Prediction&lt;br&gt;Record&lt;/b&gt;&lt;/font&gt;" style="shape=datastore;whiteSpace=wrap;html=1;strokeWidth=2;" parent="1" vertex="1">
          <mxGeometry x="560" y="300" width="51" height="50" as="geometry" />
        </mxCell>
        <mxCell id="mNo6MlBfuPs6k5OFrZoI-62" value="" style="sketch=0;pointerEvents=1;shadow=0;dashed=0;html=1;strokeColor=none;fillColor=#434445;aspect=fixed;labelPosition=center;verticalLabelPosition=bottom;verticalAlign=top;align=center;outlineConnect=0;shape=mxgraph.vvd.log_files;" parent="1" vertex="1">
          <mxGeometry x="506" y="204" width="24" height="30" as="geometry" />
        </mxCell>
        <mxCell id="mNo6MlBfuPs6k5OFrZoI-66" value="" style="sketch=0;pointerEvents=1;shadow=0;dashed=0;html=1;strokeColor=none;fillColor=#434445;aspect=fixed;labelPosition=center;verticalLabelPosition=bottom;verticalAlign=top;align=center;outlineConnect=0;shape=mxgraph.vvd.log_files;" parent="1" vertex="1">
          <mxGeometry x="506" y="276" width="24" height="30" as="geometry" />
        </mxCell>
        <mxCell id="mNo6MlBfuPs6k5OFrZoI-68" value="" style="sketch=0;pointerEvents=1;shadow=0;dashed=0;html=1;strokeColor=none;fillColor=#434445;aspect=fixed;labelPosition=center;verticalLabelPosition=bottom;verticalAlign=top;align=center;outlineConnect=0;shape=mxgraph.vvd.log_files;" parent="1" vertex="1">
          <mxGeometry x="506" y="442" width="24" height="30" as="geometry" />
        </mxCell>
        <mxCell id="mNo6MlBfuPs6k5OFrZoI-72" value="&lt;font style=&quot;font-size: 14px;&quot;&gt;&lt;b&gt;Read&lt;/b&gt;&lt;/font&gt;" style="text;html=1;strokeColor=none;fillColor=none;align=center;verticalAlign=middle;whiteSpace=wrap;rounded=0;" parent="1" vertex="1">
          <mxGeometry x="542" y="204" width="40" height="14" as="geometry" />
        </mxCell>
        <mxCell id="mNo6MlBfuPs6k5OFrZoI-73" value="&lt;font style=&quot;font-size: 14px;&quot;&gt;&lt;b&gt;Read&lt;/b&gt;&lt;/font&gt;" style="text;html=1;strokeColor=none;fillColor=none;align=center;verticalAlign=middle;whiteSpace=wrap;rounded=0;" parent="1" vertex="1">
          <mxGeometry x="542" y="276" width="40" height="14" as="geometry" />
        </mxCell>
        <mxCell id="mNo6MlBfuPs6k5OFrZoI-74" value="&lt;font style=&quot;font-size: 14px;&quot;&gt;&lt;b&gt;Read&lt;/b&gt;&lt;/font&gt;" style="text;html=1;strokeColor=none;fillColor=none;align=center;verticalAlign=middle;whiteSpace=wrap;rounded=0;" parent="1" vertex="1">
          <mxGeometry x="540" y="375" width="40" height="14" as="geometry" />
        </mxCell>
        <mxCell id="mNo6MlBfuPs6k5OFrZoI-75" value="&lt;font style=&quot;font-size: 14px;&quot;&gt;&lt;b&gt;Read&lt;/b&gt;&lt;/font&gt;" style="text;html=1;strokeColor=none;fillColor=none;align=center;verticalAlign=middle;whiteSpace=wrap;rounded=0;" parent="1" vertex="1">
          <mxGeometry x="542" y="442" width="40" height="14" as="geometry" />
        </mxCell>
        <mxCell id="mNo6MlBfuPs6k5OFrZoI-81" style="edgeStyle=orthogonalEdgeStyle;rounded=0;orthogonalLoop=1;jettySize=auto;html=1;" parent="1" target="mNo6MlBfuPs6k5OFrZoI-82" edge="1">
          <mxGeometry relative="1" as="geometry">
            <mxPoint x="444.59000000000003" y="244" as="sourcePoint" />
          </mxGeometry>
        </mxCell>
        <mxCell id="mNo6MlBfuPs6k5OFrZoI-82" value="Very Low" style="text;html=1;strokeColor=none;fillColor=none;align=center;verticalAlign=middle;whiteSpace=wrap;rounded=0;fontSize=14;fontStyle=4" parent="1" vertex="1">
          <mxGeometry x="478.59000000000003" y="234" width="70" height="20" as="geometry" />
        </mxCell>
        <mxCell id="mNo6MlBfuPs6k5OFrZoI-89" style="edgeStyle=orthogonalEdgeStyle;rounded=0;orthogonalLoop=1;jettySize=auto;html=1;" parent="1" target="mNo6MlBfuPs6k5OFrZoI-90" edge="1">
          <mxGeometry relative="1" as="geometry">
            <mxPoint x="446.99" y="310" as="sourcePoint" />
          </mxGeometry>
        </mxCell>
        <mxCell id="mNo6MlBfuPs6k5OFrZoI-90" value="Low" style="text;html=1;strokeColor=none;fillColor=none;align=center;verticalAlign=middle;whiteSpace=wrap;rounded=0;fontSize=14;fontStyle=4" parent="1" vertex="1">
          <mxGeometry x="480.99" y="300" width="49.01" height="20" as="geometry" />
        </mxCell>
        <mxCell id="mNo6MlBfuPs6k5OFrZoI-92" style="edgeStyle=orthogonalEdgeStyle;rounded=0;orthogonalLoop=1;jettySize=auto;html=1;" parent="1" target="mNo6MlBfuPs6k5OFrZoI-93" edge="1">
          <mxGeometry relative="1" as="geometry">
            <mxPoint x="446.99" y="420" as="sourcePoint" />
          </mxGeometry>
        </mxCell>
        <mxCell id="mNo6MlBfuPs6k5OFrZoI-93" value="High" style="text;html=1;strokeColor=none;fillColor=none;align=center;verticalAlign=middle;whiteSpace=wrap;rounded=0;fontSize=14;fontStyle=4" parent="1" vertex="1">
          <mxGeometry x="480.99" y="410" width="49.01" height="20" as="geometry" />
        </mxCell>
        <mxCell id="mNo6MlBfuPs6k5OFrZoI-98" style="edgeStyle=orthogonalEdgeStyle;rounded=0;orthogonalLoop=1;jettySize=auto;html=1;" parent="1" target="mNo6MlBfuPs6k5OFrZoI-99" edge="1">
          <mxGeometry relative="1" as="geometry">
            <mxPoint x="446.99" y="480" as="sourcePoint" />
          </mxGeometry>
        </mxCell>
        <mxCell id="mNo6MlBfuPs6k5OFrZoI-99" value="Medium" style="text;html=1;strokeColor=none;fillColor=none;align=center;verticalAlign=middle;whiteSpace=wrap;rounded=0;fontSize=14;fontStyle=4" parent="1" vertex="1">
          <mxGeometry x="480.99" y="470" width="69.01" height="20" as="geometry" />
        </mxCell>
        <mxCell id="mNo6MlBfuPs6k5OFrZoI-67" value="" style="sketch=0;pointerEvents=1;shadow=0;dashed=0;html=1;strokeColor=none;fillColor=#434445;aspect=fixed;labelPosition=center;verticalLabelPosition=bottom;verticalAlign=top;align=center;outlineConnect=0;shape=mxgraph.vvd.log_files;" parent="1" vertex="1">
          <mxGeometry x="506" y="372" width="24" height="30" as="geometry" />
        </mxCell>
      </root>
    </mxGraphModel>
  </diagram>
</mxfile>
